# Blender v3.6.0 OBJ File: ''
# www.blender.org
mtllib missile.mtl
o Esfera_icosaédrica
v 0.000000 -0.250000 0.000000
v 0.190211 -0.111805 0.131431
v -0.072653 -0.111805 0.212662
v -0.235114 -0.111804 0.000000
v -0.072653 -0.111805 -0.212662
v 0.190211 -0.111805 -0.131431
v 0.072653 0.111805 0.212662
v -0.190211 0.111805 0.131431
v -0.190211 0.111805 -0.131431
v 0.072653 0.111805 -0.212662
v 0.235114 0.111804 0.000000
v 0.000000 0.250000 0.000000
v -0.042704 -0.212664 0.124999
v 0.111803 -0.212664 0.077253
v 0.069099 -0.131434 0.202253
v 0.223606 -0.131434 0.000000
v 0.111803 -0.212664 -0.077253
v -0.138196 -0.212663 0.000000
v -0.180901 -0.131434 0.124999
v -0.042704 -0.212664 -0.124999
v -0.180901 -0.131434 -0.124999
v 0.069099 -0.131434 -0.202253
v 0.250000 0.000000 0.077253
v 0.250000 0.000000 -0.077253
v 0.000000 0.000000 0.250000
v 0.154508 0.000000 0.202254
v -0.250000 0.000000 0.077253
v -0.154508 0.000000 0.202254
v -0.154508 0.000000 -0.202254
v -0.250000 0.000000 -0.077253
v 0.154508 0.000000 -0.202254
v 0.000000 0.000000 -0.250000
v 0.180901 0.131434 0.124999
v -0.069099 0.131434 0.202253
v -0.223606 0.131434 0.000000
v -0.069099 0.131434 -0.202253
v 0.180901 0.131434 -0.124999
v 0.042704 0.212664 0.124999
v 0.138196 0.212663 0.000000
v -0.111803 0.212664 0.077253
v -0.111803 0.212664 -0.077253
v 0.042704 0.212664 -0.124999
vt 0.117175 0.291381
vt 0.109055 0.158202
vt 0.238874 0.244184
vt 0.117172 0.043849
vt -0.000000 0.096295
vt 0.210053 0.380915
vt 0.062420 0.379435
vt 0.000002 0.241791
vt 0.579404 0.447183
vt 0.549783 0.524421
vt 0.479669 0.422752
vt 0.338035 0.190131
vt 0.238873 0.098688
vt 0.339871 0.085983
vt 0.079512 0.765764
vt 0.019686 0.650205
vt 0.136535 0.693445
vt 0.730936 0.668818
vt 0.694508 0.538934
vt 0.816837 0.586077
vt 0.488498 0.632082
vt 0.474165 0.758885
vt 0.379501 0.676342
vt 0.972184 0.269213
vt 0.877671 0.330726
vt 0.917175 0.186092
vt -0.000000 0.519232
vt 0.067613 0.422752
vt 0.089799 0.548536
vt 0.189968 0.802126
vt 0.816837 0.730225
vt 0.426237 0.531433
vt 0.831274 0.103351
vt 0.794847 0.233236
vt 0.719245 0.118224
vt 0.198796 0.592797
vt 0.184463 0.465993
vt 0.289702 0.559885
vt 0.457044 0.378903
vt 0.339871 0.326457
vt 0.448926 0.264551
vt 0.677906 0.232621
vt 0.578744 0.324065
vt 0.578745 0.178569
vt 0.628872 -0.000000
vt 0.679742 0.101350
vt 0.549924 0.041838
vt 0.457046 0.131371
vt 0.339873 0.180961
vt 0.260081 0.700457
vt 0.402291 0.043318
vt 0.679742 0.029623
vt 0.794847 -0.000000
vt 0.679742 0.262858
vt 0.764067 0.349417
vt 0.309388 0.574673
vt 0.369214 0.459114
vt 0.289702 0.705646
vt 0.679742 0.336769
vt 0.899661 0.632734
vt 0.549923 0.422752
vt 0.289702 0.777696
vt 0.917176 0.041944
vt 0.357315 0.802126
vt 0.694509 0.772170
vt 0.777332 0.441443
vt 0.871845 0.502957
vt 0.663729 0.422752
vt 1.000000 0.139436
vt 0.210051 0.000000
vt 0.579404 0.664993
vt 0.579404 0.742546
vt 0.618907 0.653945
vt 0.579404 0.509312
vt 0.339871 0.321402
vt 0.289001 0.422752
vn 0.0974 -0.9440 0.3152
vn 0.6821 -0.6778 0.2745
vn -0.2558 -0.9468 0.1954
vn -0.2558 -0.9468 -0.1954
vn 0.0974 -0.9440 -0.3152
vn 0.8965 -0.3441 0.2792
vn 0.0235 -0.3304 0.9435
vn -0.8801 -0.3436 0.3277
vn -0.5553 -0.3357 -0.7609
vn 0.5155 -0.3350 -0.7887
vn 0.7879 -0.1297 0.6019
vn -0.2929 -0.1262 0.9478
vn -0.9913 -0.1320 0.0000
vn -0.2929 -0.1262 -0.9478
vn 0.7879 -0.1297 -0.6019
vn 0.3921 0.6670 0.6335
vn -0.4531 0.6688 0.5894
vn -0.6821 0.6778 -0.2745
vn 0.0366 0.6617 -0.7488
vn 0.7065 0.6789 -0.1998
vn 0.2558 0.9468 -0.1954
vn 0.4726 0.8040 -0.3610
vn 0.3921 0.6670 -0.6335
vn -0.0974 0.9440 -0.3152
vn -0.1787 0.7960 -0.5783
vn -0.4531 0.6688 -0.5894
vn -0.3168 0.9485 0.0000
vn -0.5878 0.8090 0.0000
vn -0.6821 0.6778 0.2745
vn -0.0974 0.9440 0.3152
vn -0.1787 0.7960 0.5783
vn 0.0366 0.6617 0.7488
vn 0.2558 0.9468 0.1954
vn 0.4726 0.8040 0.3610
vn 0.7065 0.6789 0.1998
vn 0.8801 0.3436 -0.3277
vn 0.7796 0.1935 -0.5956
vn 0.5553 0.3357 -0.7609
vn -0.0235 0.3304 -0.9435
vn -0.2900 0.1884 -0.9383
vn -0.5155 0.3350 -0.7887
vn -0.8965 0.3441 -0.2792
vn -0.9804 0.1969 0.0000
vn -0.8965 0.3441 0.2792
vn -0.5155 0.3350 0.7887
vn -0.2900 0.1884 0.9383
vn -0.0235 0.3304 0.9435
vn 0.5553 0.3357 0.7609
vn 0.7796 0.1935 0.5956
vn 0.8801 0.3436 0.3277
vn 0.2929 0.1262 -0.9478
vn 0.2900 -0.1884 -0.9383
vn 0.0235 -0.3304 -0.9435
vn -0.7879 0.1297 -0.6019
vn -0.7796 -0.1935 -0.5956
vn -0.8801 -0.3436 -0.3277
vn -0.7879 0.1297 0.6019
vn -0.7796 -0.1935 0.5956
vn -0.5553 -0.3357 0.7609
vn 0.2929 0.1262 0.9478
vn 0.2900 -0.1884 0.9383
vn 0.5155 -0.3350 0.7887
vn 0.9913 0.1320 0.0000
vn 0.9804 -0.1969 0.0000
vn 0.8965 -0.3441 -0.2792
vn 0.4531 -0.6688 -0.5894
vn 0.1787 -0.7960 -0.5783
vn -0.0366 -0.6617 -0.7488
vn -0.3921 -0.6670 -0.6335
vn -0.4726 -0.8040 -0.3610
vn -0.7065 -0.6789 -0.1998
vn -0.7065 -0.6789 0.1998
vn -0.4726 -0.8040 0.3610
vn -0.3921 -0.6670 0.6335
vn 0.6821 -0.6778 -0.2745
vn 0.5878 -0.8090 0.0000
vn 0.3168 -0.9485 0.0000
vn -0.0366 -0.6617 0.7488
vn 0.1787 -0.7960 0.5783
vn 0.4531 -0.6688 0.5894
g Esfera_icosaédrica_Esfera_icosaédrica_Materiais
usemtl Materiais
s off
f 1/1/1 14/2/1 13/3/1
f 2/4/2 14/2/2 16/5/2
f 1/1/3 13/3/3 18/6/3
f 1/1/4 18/6/4 20/7/4
f 1/1/5 20/7/5 17/8/5
f 2/9/6 16/10/6 23/11/6
f 3/12/7 15/13/7 25/14/7
f 4/15/8 19/16/8 27/17/8
f 5/18/9 21/19/9 29/20/9
f 6/21/10 22/22/10 31/23/10
f 2/24/11 23/25/11 26/26/11
f 3/27/12 25/28/12 28/29/12
f 4/15/13 27/17/13 30/30/13
f 5/18/14 29/20/14 32/31/14
f 6/21/15 31/23/15 24/32/15
f 7/33/16 33/34/16 38/35/16
f 8/36/17 34/37/17 40/38/17
f 9/39/18 35/40/18 41/41/18
f 10/42/19 36/43/19 42/44/19
f 11/45/20 37/46/20 39/47/20
f 39/47/21 42/44/21 12/48/21
f 39/47/22 37/46/22 42/44/22
f 37/46/23 10/42/23 42/44/23
f 42/44/24 41/41/24 12/48/24
f 42/44/25 36/43/25 41/41/25
f 36/43/26 9/39/26 41/41/26
f 41/41/27 40/49/27 12/48/27
f 41/41/28 35/40/28 40/49/28
f 35/50/29 8/36/29 40/38/29
f 40/49/30 38/51/30 12/48/30
f 40/52/31 34/53/31 38/35/31
f 34/53/32 7/33/32 38/35/32
f 38/51/33 39/47/33 12/48/33
f 38/35/34 33/34/34 39/54/34
f 33/34/35 11/55/35 39/54/35
f 24/32/36 37/56/36 11/57/36
f 24/32/37 31/23/37 37/56/37
f 31/23/38 10/58/38 37/56/38
f 32/59/39 36/43/39 10/42/39
f 32/31/40 29/20/40 36/60/40
f 29/61/41 9/39/41 36/43/41
f 30/30/42 35/50/42 9/62/42
f 30/30/43 27/17/43 35/50/43
f 27/17/44 8/36/44 35/50/44
f 28/29/45 34/37/45 8/36/45
f 28/29/46 25/28/46 34/37/46
f 25/63/47 7/33/47 34/53/47
f 26/26/48 33/34/48 7/33/48
f 26/26/49 23/25/49 33/34/49
f 23/25/50 11/55/50 33/34/50
f 31/23/51 32/64/51 10/58/51
f 31/23/52 22/22/52 32/64/52
f 22/65/53 5/18/53 32/31/53
f 29/20/54 30/66/54 9/67/54
f 29/20/55 21/19/55 30/66/55
f 21/19/56 4/68/56 30/66/56
f 27/17/57 28/29/57 8/36/57
f 27/17/58 19/16/58 28/29/58
f 19/16/59 3/27/59 28/29/59
f 25/63/60 26/26/60 7/33/60
f 25/63/61 15/69/61 26/26/61
f 15/13/62 2/4/62 26/70/62
f 23/11/63 24/32/63 11/57/63
f 23/11/64 16/10/64 24/32/64
f 16/10/65 6/21/65 24/32/65
f 17/71/66 22/22/66 6/21/66
f 17/72/67 20/73/67 22/65/67
f 20/73/68 5/18/68 22/65/68
f 20/73/69 21/19/69 5/18/69
f 20/73/70 18/74/70 21/19/70
f 18/74/71 4/68/71 21/19/71
f 18/6/72 19/75/72 4/76/72
f 18/6/73 13/3/73 19/75/73
f 13/3/74 3/12/74 19/75/74
f 16/10/75 17/71/75 6/21/75
f 16/5/76 14/2/76 17/8/76
f 14/2/77 1/1/77 17/8/77
f 13/3/78 15/13/78 3/12/78
f 13/3/79 14/2/79 15/13/79
f 14/2/80 2/4/80 15/13/80
